<svg width="2346" height="2996" viewBox="0 0 2346 2996" fill="none" xmlns="http://www.w3.org/2000/svg">
<path d="M2281 158.5H63.5L24 2011L129.5 2332.5L398 2697.5L895 2948.5H1440.5L1907 2750.5L2197.5 2380.5L2281 2011V158.5Z" fill="#727B0D"/>
<mask id="mask0_97_2" style="mask-type:alpha" maskUnits="userSpaceOnUse" x="15" y="0" width="2331" height="2898">
<path fill-rule="evenodd" clip-rule="evenodd" d="M15 0H2345.56V1844.4C2345.56 2426.19 1873.53 2897.82 1291.26 2897.82H1069.3C487.026 2897.82 15 2426.19 15 1844.4V0Z" fill="#727B0D"/>
<path fill-rule="evenodd" clip-rule="evenodd" d="M15 0H2345.56V1844.4C2345.56 2426.19 1873.53 2897.82 1291.26 2897.82H1069.3C487.026 2897.82 15 2426.19 15 1844.4V0Z" fill="black" fill-opacity="0.2"/>
</mask>
<g mask="url(#mask0_97_2)">
<path fill-rule="evenodd" clip-rule="evenodd" d="M1582.86 1885.48C1579.57 1918.59 1578.46 1951.77 1579.56 1985.03V2018.22C1566.43 2061.01 1563.13 2105.26 1569.65 2150.96C1571.49 2144.88 1574.79 2140.46 1579.56 2137.69C1577.75 2169.3 1579.95 2200.28 1586.17 2230.61V2243.88C1596.42 2261.22 1611.83 2270.07 1632.4 2270.43V2283.71C1621.06 2282.85 1610.05 2280.64 1599.37 2277.07C1590.23 2269.94 1582.53 2261.09 1576.26 2250.52C1579.13 2221.61 1569.22 2199.48 1546.54 2184.15C1540.75 2183.28 1536.35 2185.49 1533.33 2190.79C1543.59 2197.02 1552.4 2204.76 1559.75 2214.02C1556.45 2219.55 1553.14 2225.08 1549.84 2230.61L1547.86 2233.93C1545.22 2238.36 1542.57 2242.78 1539.93 2247.2C1540.89 2252.33 1543.09 2256.75 1546.54 2260.48C1535.59 2265.29 1532.29 2273.03 1536.63 2283.71C1552.79 2299.03 1571.51 2307.87 1592.77 2310.26C1599.35 2309.69 1604.85 2311.9 1609.28 2316.89C1611.32 2325.3 1614.62 2333.04 1619.19 2340.12C1646.32 2346.39 1672.74 2351.92 1698.44 2356.72C1738.13 2355.61 1777.75 2356.72 1817.32 2360.04C1837.39 2362.38 1855 2370.12 1870.15 2383.27C1881.29 2374.26 1892.29 2365.41 1903.18 2356.72L1910.02 2353.28C1912.14 2352.21 1914.26 2351.14 1916.39 2350.08C1931.64 2345.67 1948.15 2343.46 1965.92 2343.44C2047.31 2346.99 2125.46 2361.37 2200.37 2386.58C2209.51 2395.02 2216.11 2404.98 2220.19 2416.45C2239.48 2418.8 2254.89 2412.16 2266.42 2396.54C2275.51 2435.04 2273.31 2472.66 2259.81 2509.37C2255.78 2530.75 2248.07 2550.66 2236.7 2569.11C2232.29 2584.59 2232.29 2600.08 2236.7 2615.57C2258.02 2624.77 2276.73 2638.05 2292.84 2655.39C2303.4 2635.43 2299 2619.94 2279.63 2608.93C2270.44 2616.53 2261.64 2616.53 2253.21 2608.93C2258.29 2597.17 2267.1 2590.53 2279.63 2589.02C2307.81 2601.95 2332.03 2619.65 2352.28 2642.12C2355.36 2643.57 2358.5 2645.11 2361.69 2646.76L2528.7 2538.09C2693.73 2554.53 3023.98 2594.62 3024.76 2623.46C3025.45 2648.97 2993.62 2706.45 2967.3 2753.99C2956.43 2773.61 2946.5 2791.55 2940.18 2804.85C2934.04 2817.74 2923.97 2843.44 2911.86 2874.83C2931.83 2885.98 2950.8 2896.75 2967.8 2906.62C2952.09 2899.27 2931.24 2889.73 2909.77 2880.25C2908.26 2884.16 2906.72 2888.15 2905.16 2892.21C2882.39 2951.35 2854.21 3024.53 2831.33 3071.67C2832.14 3076.71 2833.16 3081.76 2834.4 3086.81C2831.07 3086.26 2827.86 3085.58 2824.75 3084.76C2819.97 3093.93 2815.49 3101.64 2811.43 3107.47C2795.76 3130 2749.39 3175.17 2699.87 3220.69C2693.85 3241.39 2687.38 3266.57 2681.71 3299.07C2668.71 3373.51 2651.59 3366.29 2622.38 3344.37C2610.13 3356.33 2597.26 3368.37 2585.16 3379.7C2568.79 3395.02 2553.83 3409.01 2543.73 3419.71C2532.18 3431.95 2509.95 3459.41 2483.58 3492L2483.56 3492.02C2431.03 3556.93 2362.05 3642.16 2328.21 3667.89C2287.55 3698.81 2121.51 3771.63 2043.57 3804.18C2042.75 3803.45 2041.9 3802.7 2041.02 3801.92C2039.62 3800.69 2038.14 3799.39 2036.58 3798.02C2036.38 3799.09 2036.18 3800.17 2035.98 3801.26C2035.6 3803.3 2035.23 3805.37 2034.87 3807.47C2020.89 3887.47 2002.16 3873.15 1968.77 3847.62C1953.49 3835.93 1935.12 3821.89 1912.74 3813.48C1892.8 3831.22 1874.2 3850.06 1856.95 3870H377.56C390.861 3843 412.881 3831.94 443.604 3836.81C444.28 3830.88 444.047 3825.05 442.909 3819.34C435.022 3822.81 424.601 3824.6 410.419 3824.6C360.954 3824.6 210.329 3717.36 118.775 3646.58C110.708 3647.81 102.306 3648.17 93.5712 3647.65C89.8992 3650.2 87.7 3653.51 86.9669 3657.61C82.8457 3654.84 80.6464 3650.41 80.3624 3644.33C83.1516 3637.27 86.1569 3630.33 89.3784 3623.51C89.1799 3623.35 88.9821 3623.19 88.7847 3623.03C54.1785 3612.85 -78.1393 3525.3 -112.745 3486.61C-122.955 3475.2 -143.442 3460.95 -164.849 3446.06C-201.319 3420.7 -240.458 3393.48 -235.992 3375.26C-242.773 3370.1 -250.052 3365.56 -257.958 3362.56C-292.167 3349.54 -353.662 3273.07 -380.134 3236.46C-398.252 3206.23 -421.684 3166.68 -445.754 3125.35C-448.496 3124.77 -451.255 3124.22 -454.077 3123.65L-454.081 3123.65C-463.604 3121.74 -473.85 3119.69 -486.587 3115.97C-514.549 3107.82 -535.174 3065.67 -533.572 3010.88C-540.09 3003.65 -541.282 2993.56 -537.149 2980.61C-534.218 2976.56 -531.225 2972.57 -528.169 2968.64C-521.801 2940.26 -509.583 2910.21 -489.913 2880.78C-499.775 2879.35 -507.815 2875.02 -514.033 2867.78C-514.409 2860.42 -516.61 2853.78 -520.638 2847.87C-528.615 2843 -537.422 2840.79 -547.055 2841.23C-548.09 2832.12 -546.989 2823.27 -543.753 2814.68C-519.948 2803.99 -503.437 2810.63 -494.22 2834.6C-491.329 2841.27 -486.927 2841.27 -481.011 2834.6C-473.251 2833.14 -466.647 2835.35 -461.198 2841.23C-471.565 2851.57 -479.643 2863.13 -485.434 2875.91C-480.49 2875.92 -476.036 2875.96 -472.015 2876.04C-455.929 2869.74 -441.316 2860.35 -428.176 2847.87C-422.909 2850.9 -420.707 2855.33 -421.572 2861.14C-414.073 2872.51 -403.066 2876.94 -388.55 2874.42C-374.283 2866.23 -359.973 2857.38 -345.621 2847.87C-340.311 2856.52 -332.606 2860.95 -322.506 2861.14C-289.106 2850.02 -256.084 2840.06 -223.44 2831.28C-235.667 2842.45 -246.674 2854.62 -256.462 2867.78C-248.385 2875.18 -239.579 2876.28 -230.044 2871.1C-215.732 2848.98 -198.12 2830.18 -177.209 2814.68H-170.605C-158.263 2794.25 -191.891 2817.24 -186.621 2793.42L-183.813 2748.31C-184.382 2733.86 -178.384 2749.11 -186.621 2737.01C-183.518 2730.62 -189.516 2702.1 -183.813 2708.49L-180.323 2701.47C-179.285 2699.39 -178.247 2697.3 -177.209 2695.21C-164.657 2679.98 -149.247 2667.81 -130.978 2658.71C-110.977 2655.13 -91.1637 2650.71 -71.5388 2645.44C-67.8013 2638.83 -63.3981 2633.3 -58.3298 2628.84C-59.897 2620.27 -57.6959 2613.64 -51.7255 2608.93V2602.29C-47.3223 2602.29 -45.1211 2600.08 -45.1211 2595.66V2582.38C-73.5101 2583.4 -47.0925 2601.96 -45.1211 2574.4C-27.2489 2575.64 -51.4647 2550.44 -38.5167 2562.47C-27.9325 2570.28 -19.1262 2569.18 -12.0991 2559.15C-15.89 2546.42 -18.0919 2534.24 -18.7035 2522.65C-12.1262 2522.08 -6.62274 2524.29 -2.1925 2529.28C19.0842 2510.12 42.1996 2493.52 67.1536 2479.5C73.1372 2468.23 92.9514 2482.6 91.3729 2469.55C110.057 2468.39 103.451 2450.69 106.78 2469.55C110.65 2468.16 113.952 2465.95 116.687 2462.91C146.017 2414.23 159.226 2361.13 156.313 2303.62C181.093 2282.85 208.613 2266.26 238.868 2253.84C244.978 2248.71 250.579 2243.18 255.67 2237.25C265.148 2236.46 274.535 2236.28 283.83 2236.68C274.784 2231.27 265.636 2230.06 255.67 2237.25C261.821 2230.08 267.228 2222.34 271.89 2214.02C289.504 2209.59 307.111 2209.59 324.725 2214.02C346.335 2224.69 366.148 2237.96 384.165 2253.84C401.779 2258.27 419.386 2258.27 437 2253.84C469.038 2224.46 462.836 2216.11 505.646 2207.87C500.19 2201.56 542.723 2184.47 545.973 2177.51C569.966 2156.05 588.337 2167.11 619.384 2157.6C623.848 2164.92 637.391 2145 641.736 2150.96C648.314 2151.53 653.816 2149.32 658.247 2144.33C662.421 2111.7 672.328 2109.49 687.967 2137.69V2111.14C698.283 2112.69 707.087 2117.11 714.385 2124.41C706.796 2107.55 706.796 2090.96 714.385 2074.64C709.681 2073.06 704.976 2071.48 700.272 2069.91L694.572 2068C708.949 2060.02 724.364 2056.7 740.802 2058.04C733.709 2048.85 724.905 2041.11 714.385 2034.81L720.989 2028.18C742.17 2027.6 761.983 2026.49 780.429 2024.86V2011.58C771.064 1991.86 756.752 1987.43 737.5 1998.31C730.698 1996.08 727.395 1991.65 727.594 1985.03C726.51 1967.2 727.613 1949.5 730.896 1931.94C743.345 1926.54 747.744 1917.69 744.104 1905.39C737.071 1917.97 731.569 1919.08 727.594 1908.71C734.918 1895.12 739.323 1880.74 740.802 1865.56C738.543 1860 734.145 1857.78 727.594 1858.93C726.669 1813.81 739.878 1773.99 767.22 1739.46C768.259 1733.19 769.299 1726.92 770.339 1720.65L770.522 1719.54C771.623 1712.91 772.725 1706.27 773.824 1699.63V1693C800.374 1693.3 815.782 1680.02 820.055 1653.17C806.272 1642.16 808.471 1631.1 826.659 1619.99C826.659 1615.56 828.859 1613.35 833.264 1613.35C837.669 1604.5 842.068 1595.65 846.473 1586.8L892.704 1546.98C920.66 1517.36 953.682 1494.13 991.77 1477.29C1008.21 1471.04 1021.42 1474.36 1031.4 1487.24H1051.21H1064.42C1076.83 1481.66 1090.04 1479.44 1104.04 1480.61C1127.9 1486.73 1152.12 1491.15 1176.69 1493.88C1192.62 1496.29 1202.52 1489.65 1206.41 1473.97C1219.79 1494.14 1238.5 1505.2 1262.55 1507.15C1278.9 1529.79 1300.92 1544.16 1328.59 1550.3C1426.41 1572.61 1314.78 1600.59 1415.09 1604.83C1432.28 1610.69 1489.17 1642.25 1500.6 1656.3C1493.68 1698.66 1580.02 1699.62 1536.3 1708.15C1487.54 1718.11 1548.21 1704.26 1549.59 1708.15C1541.27 1714 1583.35 1718.76 1576.26 1726.18C1575.34 1768.37 1578.64 1810.4 1586.17 1852.29C1592.08 1845.61 1596.48 1845.61 1599.37 1852.29C1596.68 1857.7 1593.99 1863.11 1591.3 1868.52L1587.34 1876.47C1585.85 1879.47 1584.35 1882.47 1582.86 1885.48ZM-223.216 2907.6C-214.632 2909.63 -207.898 2911.94 -203.694 2914.57C-201.477 2915.95 -199.044 2917.57 -196.425 2919.41C-196.433 2915.52 -196.632 2911.58 -197.022 2907.6H-223.216ZM323.148 3335.76C318.299 3341.02 313.377 3346.09 308.438 3350.99C311.337 3356.03 314.565 3360.89 318.121 3365.57C322.469 3354.98 324.145 3345.05 323.148 3335.76ZM250.697 3402.9C244.809 3408.04 239.351 3412.91 234.485 3417.53C240.039 3418.69 245.903 3419.07 252.077 3418.67C251.281 3413.31 250.821 3408.06 250.697 3402.9ZM374.549 2323.53C388.394 2330.76 400.408 2341.52 411.359 2351.33C433.11 2370.82 450.663 2386.54 470.022 2363.35C468.312 2349.19 469.982 2336.23 475.035 2324.48C468.413 2333.45 458.337 2336.64 463.418 2316.89C468.132 2311.81 473.712 2309.47 480.157 2309.87C480.284 2311.9 479.967 2314.02 479.335 2316.1C480.527 2314.11 481.825 2312.17 483.231 2310.26C482.185 2310.06 481.16 2309.93 480.157 2309.87C479.774 2303.75 475.375 2298.37 463.418 2296.98C459.485 2281.04 432.763 2285.53 405.306 2290.15C385.496 2293.48 365.304 2296.88 353.011 2292.71C358.361 2303.82 365.54 2314.1 374.549 2323.53ZM942.334 1841.75C942.44 1862.79 934.788 1950.52 952.296 1940.54L975.846 1765.39C978.074 1762.39 1000.61 1734.01 1004.6 1732.99C999.917 1726.99 973.878 1751.16 965.352 1752.73L975.846 1765.39C973.83 1768.1 942.911 1837.41 942.334 1841.75ZM1569.65 1706.27C1546.92 1713.56 1532.61 1704.71 1526.73 1679.72C1524.53 1673.08 1520.12 1668.66 1513.52 1666.45C1510.21 1662.02 1506.91 1657.6 1503.61 1653.17C1500.31 1648.75 1497.01 1644.32 1493.7 1639.9C1539.7 1640.89 1565.02 1663.01 1569.65 1706.27ZM687.967 2157.6C669.402 2190.63 642.985 2216.07 608.714 2233.93C581.841 2240.15 555.423 2247.9 529.462 2257.16C516.814 2267.59 510.21 2280.86 509.648 2296.98C523.986 2283.71 539.395 2271.53 555.879 2260.48C589.502 2257.49 618.119 2244.22 641.736 2220.65C665.941 2216.16 687.96 2221.69 707.78 2237.25C711.961 2217.25 718.565 2198.45 727.594 2180.83C726.62 2179.36 725.645 2177.89 724.669 2176.42L720.989 2170.88C716.587 2174.19 712.184 2177.51 707.78 2180.83L694.572 2190.79C688.284 2180.53 686.085 2169.47 687.967 2157.6ZM1006.66 3441.77C1019.73 3440.76 1032.8 3439.75 1045.87 3438.74L1047.91 3438.58C1034.16 3439.65 1020.4 3440.71 1006.66 3441.77Z" fill="black"/>
<path d="M-556.508 2883.06L-556.467 2883.03C-550.963 2878.6 -545.46 2874.18 -539.956 2869.75C-559.891 2854.39 -581.906 2841.11 -606 2829.93V2949.4C-589.536 2935.08 -578.529 2917.38 -572.978 2896.3C-567.488 2891.89 -561.998 2887.47 -556.508 2883.06Z" fill="black"/>
<path fill-rule="evenodd" clip-rule="evenodd" d="M1331.8 1776.04C1336.77 1826.29 1335.51 1876.47 1327.99 1926.58C1337.43 1915.27 1346.87 1903.96 1356.3 1892.65C1335.74 1966.7 1321.3 2042.76 1312.98 2120.84C1307.53 2145.35 1292.23 2156.34 1267.09 2153.81C1253.1 2086.32 1246.54 2017.97 1247.41 1948.78C1245.41 1940.55 1241.33 1934.42 1235.19 1930.38C1234.25 1884.86 1241.06 1840.89 1255.61 1798.48C1274.81 1766.6 1300.2 1759.11 1331.8 1776.04Z" fill="#727B0D"/>
</g>
<rect x="85" y="1139" width="2152" height="173" fill="black"/>
<path fill-rule="evenodd" clip-rule="evenodd" d="M0 98H2330.56V1942.4C2330.56 2524.19 1858.53 2995.82 1276.26 2995.82H1054.3C472.026 2995.82 0 2524.19 0 1942.4V98ZM96.1818 194.101V1942.4C96.1818 2471.11 527.846 2896 1057 2896H1276.26C1805.41 2896 2234.38 2471.11 2234.38 1942.4V194.101H96.1818Z" fill="black"/>
<path d="M729 1910.5L740.5 1891L752 1834.5H766C769.167 1850 775.9 1883 777.5 1891C779.5 1901 848.5 2040 847.5 2050.5C846.7 2058.9 816.833 2134 802 2170.5L606 2182L658.5 2143L667.5 2119L684 2099.5L693 2069L715 2040L729 2008V1947.5V1910.5Z" fill="black"/>
<path d="M901 1283.95V1167.59H932.591V1258.5H979.636V1283.95H901Z" fill="#727B0D"/>
<path d="M1040 1167.59V1283.95H1008.41V1167.59H1040Z" fill="#727B0D"/>
<path d="M1102.79 1167.59L1126.65 1249.64H1127.56L1151.42 1167.59H1187.11L1148.7 1283.95H1105.51L1067.11 1167.59H1102.79Z" fill="#727B0D"/>
<path d="M1314.99 1167.59V1283.95H1288.63L1246.59 1222.82H1245.9V1283.95H1214.31V1167.59H1241.13L1282.49 1228.5H1283.4V1167.59H1314.99Z" fill="#727B0D"/>
<path d="M1458.66 1225.77C1458.66 1238.73 1456.15 1249.66 1451.11 1258.56C1446.07 1267.42 1439.27 1274.14 1430.71 1278.73C1422.15 1283.27 1412.6 1285.55 1402.07 1285.55C1391.47 1285.55 1381.88 1283.25 1373.32 1278.67C1364.8 1274.05 1358.02 1267.31 1352.98 1258.44C1347.98 1249.54 1345.48 1238.65 1345.48 1225.77C1345.48 1212.82 1347.98 1201.91 1352.98 1193.05C1358.02 1184.14 1364.8 1177.42 1373.32 1172.88C1381.88 1168.29 1391.47 1166 1402.07 1166C1412.6 1166 1422.15 1168.29 1430.71 1172.88C1439.27 1177.42 1446.07 1184.14 1451.11 1193.05C1456.15 1201.91 1458.66 1212.82 1458.66 1225.77ZM1426.16 1225.77C1426.16 1218.8 1425.24 1212.93 1423.38 1208.16C1421.56 1203.35 1418.85 1199.71 1415.26 1197.25C1411.7 1194.75 1407.3 1193.5 1402.07 1193.5C1396.85 1193.5 1392.43 1194.75 1388.84 1197.25C1385.27 1199.71 1382.57 1203.35 1380.71 1208.16C1378.89 1212.93 1377.98 1218.8 1377.98 1225.77C1377.98 1232.74 1378.89 1238.63 1380.71 1243.44C1382.57 1248.22 1385.27 1251.85 1388.84 1254.35C1392.43 1256.81 1396.85 1258.05 1402.07 1258.05C1407.3 1258.05 1411.7 1256.81 1415.26 1254.35C1418.85 1251.85 1421.56 1248.22 1423.38 1243.44C1425.24 1238.63 1426.16 1232.74 1426.16 1225.77Z" fill="#727B0D"/>
<path fill-rule="evenodd" clip-rule="evenodd" d="M1571.6 359.705L1580.13 308.307H1386.77L1268.53 1020.55H1461.89L1471.25 964.202C1459.73 951.448 1449.94 937.17 1441.94 921.363L1441.9 921.288L1441.86 921.213C1419.99 877.211 1415.65 823.094 1425.85 760.869L1429.01 741.631H1508.2L1520.94 664.857C1485.48 626.532 1474.61 575.546 1484.27 516.069L1484.28 516.052C1492.38 466.426 1512.89 422.771 1545.72 385.613L1545.73 385.605C1553.83 376.445 1562.46 367.812 1571.6 359.705ZM2074.62 444.626C2071.71 429.866 2067.03 415.957 2060.59 402.897C2043.67 368.12 2015.73 341.109 1976.78 321.865C1938.06 302.622 1889.95 293 1832.45 293C1775.88 293 1724.29 302.506 1677.69 321.518C1631.32 340.298 1593.06 366.729 1562.92 400.811C1533.01 434.661 1514.35 474.307 1506.93 519.75C1499.38 566.219 1505.73 604.442 1525.99 634.418L1526.26 632.799C1530.07 638.29 1534.35 643.501 1539.1 648.43C1569.93 680.426 1615.61 703.379 1676.12 717.29L1744.28 732.592C1769.79 738.157 1789.84 744.301 1804.45 751.024C1819.06 757.748 1829.14 765.283 1834.71 773.63C1837.8 778.269 1839.75 783.267 1840.55 788.622C1841.72 793.717 1841.8 799.152 1840.8 804.927C1838.94 816.519 1833.72 826.836 1825.15 835.879C1816.57 844.921 1804.86 851.992 1790.02 857.093C1775.18 862.194 1757.33 864.744 1736.46 864.744C1711.89 864.744 1691.37 860.919 1674.91 853.268C1658.45 845.616 1646.51 834.372 1639.09 819.533C1635.92 813.2 1633.68 806.233 1632.37 798.633C1630.27 788.466 1629.91 777.116 1631.28 764.585H1448.5C1438.77 823.938 1443.4 872.743 1462.42 910.998C1466.5 919.073 1471.12 926.708 1476.28 933.905L1476.55 932.237C1495.6 958.391 1521.78 978.671 1555.09 993.076C1598.22 1011.39 1650.62 1020.55 1712.29 1020.55C1772.57 1020.55 1825.66 1012.09 1871.57 995.163C1917.48 978.238 1954.69 953.546 1983.21 921.087C2011.72 888.628 2029.92 848.981 2037.81 802.147C2042.11 776.954 2042.32 753.561 2038.43 731.967C2038.29 731.245 2038.14 730.525 2037.99 729.807C2033.35 706.854 2023.61 686.103 2008.77 667.555C1993.93 649.007 1973.53 633.009 1947.56 619.562C1921.83 605.883 1889.95 594.87 1851.93 586.523L1796.28 574.003C1780.05 570.525 1766.02 566.584 1754.2 562.179C1742.61 557.774 1733.22 552.789 1726.03 547.224C1719.07 541.66 1714.32 535.516 1711.77 528.792C1711.12 526.854 1710.65 524.861 1710.35 522.814C1708.94 516.731 1709.13 510.146 1710.9 503.06C1712.75 492.395 1717.27 483.005 1724.46 474.89C1731.88 466.775 1742.2 460.399 1755.41 455.762C1768.86 451.125 1785.55 448.807 1805.49 448.807C1836.79 448.807 1859.05 455.414 1872.27 468.63C1880.86 477.07 1886.21 487.617 1888.34 500.27C1888.84 502.651 1889.22 505.11 1889.48 507.647C1889.97 512.341 1890.04 517.304 1889.7 522.535H2073.98C2078.71 494.388 2078.93 468.418 2074.62 444.626ZM767.757 877L736 1020.55L1240.12 1020.55L1266.55 864.75H947.989L967.465 742.332H1260.99L1287.42 586.529H993.896L1013.37 464.111H1333.33L1359.76 308.307L1045.72 308.308L767.757 877ZM563.003 810.497L500.403 308.308H282L398.853 1020.55H663.163L1016.5 308.308H798.1L568.568 810.497H563.003Z" fill="black"/>
<path d="M918.5 1752C922.5 1732 969.833 1702.33 993 1690H1040C1040.83 1728.83 1042 1812.5 1040 1836.5C1037.5 1866.5 1008 1978 970.5 2037.5C933 2097 936 2137 918.5 2196.5C900.999 2256 764.5 2286 722 2303.5C688 2317.5 573.833 2395.33 521 2432.5C485.5 2433.33 403 2434.5 357 2432.5C299.5 2430 322.5 2318 325 2286C327 2260.4 403.5 2262 441.5 2266C498.666 2245.33 618.5 2202.5 640.5 2196.5C662.5 2190.5 671 2154.33 672.5 2137C704.833 2137.83 772 2139 782 2137C794.5 2134.5 829 2117 849 2097C869 2077 871 1985.5 876 1950.5C881 1915.5 913.5 1777 918.5 1752Z" fill="black"/>
<path d="M1565.5 2190.5L1533.5 2149L1471.5 2201.5C1478.33 2226.67 1493 2280.6 1497 2295C1502 2313 1596 2383.5 1600 2383.5H1726C1707.83 2362 1670.1 2316.9 1664.5 2308.5C1658.9 2300.1 1639.83 2284 1631 2277H1614L1581 2253V2222L1565.5 2190.5Z" fill="black"/>
<path d="M1495 1640.5L1428.5 1635.5L1448.5 1703L1502.5 1760L1576.5 1726L1569.5 1707L1547 1674.5L1495 1640.5Z" fill="black"/>
</svg>
